# AST/ASF file generated using VICON BodyLanguage
# -----------------------------------------------
:version 1.10
:name VICON
:units
  mass 1.0
  length 0.45
  angle deg
:documentation
   .ast/.asf automatically generated from VICON data using
   VICON BodyBuilder and BodyLanguage model FoxedUp or BRILLIANT.MOD
:root
   order TX TY TZ RX RY RZ
   axis XYZ
   position 0 0 0  
   orientation 0 0 0 
:bonedata
  begin
     id 1 
     name lhipjoint
     direction 0.734343 -0.627749 0.258209 
     length 2.5437 
     axis 0 0 0  XYZ
  end
  begin
     id 2 
     name lfemur
     direction 0.34202 -0.939693 0  
     length 6.7391  
     axis 0 0 20  XYZ
    dof rx ry rz
    limits (-160.0 20.0)
           (-70.0 70.0)
           (-60.0 70.0)
  end
  begin
     id 3 
     name ltibia
     direction 0.34202 -0.939693 0   
     length 7.21536   
     axis 0 0 20   XYZ
    dof rx
    limits (-10.0 170.0)
  end
  begin
     id 4 
     name lfoot
     direction 0.0489572 -0.134509 0.989702   
     length 1.61313   
     axis -90 7.62852e-016 20   XYZ
    dof rx rz
    limits (-45.0 90.0)
           (-70.0 20.0)
  end
  begin
     id 5 
     name ltoes
     direction 1.53451e-011 -4.21692e-011 1   
     length 0.823104   
     axis -90 7.62852e-016 20   XYZ
    dof rx
    limits (-90.0 20.0)
  end
  begin
     id 6 
     name rhipjoint
     direction -0.746398 -0.615468 0.253157   
     length 2.59446  
     axis 0 0 0  XYZ 
  end
  begin
     id 7 
     name rfemur
     direction -0.34202 -0.939693 0   
     length 6.7075   
     axis 0 0 -20   XYZ
    dof rx ry rz
    limits (-160.0 20.0)
           (-70.0 70.0)
           (-70.0 60.0)
  end
  begin
     id 8 
     name rtibia
     direction -0.34202 -0.939693 0   
     length 7.27262   
     axis 0 0 -20   XYZ
    dof rx
    limits (-10.0 170.0)
 end
 begin
     id 9 
     name rfoot
     direction -0.0455203 -0.125066 0.991104   
     length 1.91095  
     axis -90 -7.62852e-016 -20   XYZ
    dof rx rz
    limits (-45.0 90.0)
           (-20.0 70.0)
  end
  begin
     id 10 
     name rtoes
     direction -1.53601e-011 -4.21913e-011 1   
     length 0.969037   
     axis -90 -7.62852e-016 -20   XYZ
    dof rx
    limits (-90.0 20.0)
  end
  begin
     id 11 
     name lowerback
     direction 0.0181546 0.999122 -0.0377542   
     length 1.99916   
     axis 0 0 0   XYZ
    dof rx ry rz
    limits (-20.0 45.0)
           (-30.0 30.0)
           (-30.0 30.0)
  end
  begin
     id 12 
     name upperback
     direction 0.0203486 0.99589 0.0882534   
     length 1.951   
     axis 0 0 0   XYZ
    dof rx ry rz
    limits (-20.0 45.0)
           (-30.0 30.0)
           (-30.0 30.0)
  end
  begin
     id 13 
     name thorax
     direction 0.0131685 0.994241 0.106355   
     length 1.97461   
     axis 0 0 0   XYZ
    dof rx ry rz
    limits (-20.0 45.0)
           (-30.0 30.0)
           (-30.0 30.0)
  end
  begin
     id 14 
     name lowerneck
     direction -0.0281395 0.999325 0.023617   
     length 1.7959   
     axis 0 0 0   XYZ
    dof rx ry rz
    limits (-20.0 45.0)
           (-30.0 30.0)
           (-30.0 30.0)
  end
  begin
     id 15 
     name upperneck
     direction 0.0288721 0.991984 -0.123019   
     length 1.79917   
     axis 0 0 0   XYZ
    dof rx ry rz
    limits (-20.0 45.0)
           (-30.0 30.0)
           (-30.0 30.0)
  end
  begin
     id 16
     name head
     direction 0.0133797 0.998944 -0.0439492  
     length 1.80902  
     axis 0 0 0   XYZ
    dof rx ry rz
    limits (-20.0 45.0)
           (-30.0 30.0)
           (-30.0 30.0)
  end
  begin
     id 17 
     name lclavicle
     direction 0.919195 0.377107 0.113449  
     length 3.17815  
     axis 0 0 0   XYZ
    dof ry rz
    limits (-20.0 10.0)
           (0.0 20.0)
  end
  begin
     id 18 
     name lhumerus
     direction 1 -4.48959e-011 2.13129e-027   
     length 4.84137   
     axis 180 -30 -90   XYZ
    dof rx ry rz
    limits (-60.0 90.0)
           (-90.0 90.0)
           (-90.0 90.0)
  end
  begin
     id 19
     name lradius
     direction 1 -4.48957e-011 -6.30627e-028   
     length 3.2452   
     axis 180 -30 -90   XYZ
    dof rx
    limits (-10.0 170.0)
  end
  begin
     id 20
     name lwrist
     direction 1 -4.4901e-011 9.13299e-027   
     length 1.6226   
     axis -6.84618e-015 90 90   XYZ
    dof ry
    limits (-180.0 0.0)
 end
  begin
     id 21 
     name lhand
     direction 1 -4.48816e-011 1.82293e-026   
     length 0.521221   
     axis -1.16502e-014 90 90   XYZ
    dof rx rz
    limits (-90.0 90.0)
           (-45.0 45.0)
  end
  begin
     id 22 
     name lfingers
     direction 1 -4.49108e-011 3.65687e-026   
     length 0.420221   
     axis -2.33008e-014 90 90   XYZ
    dof rx
    limits (0.0 90.0)
  end
  begin
     id 23
     name lthumb
     direction 0.707107 -6.34943e-011 0.707107   
     length 0.603356   
     axis -90 45 5.69224e-014   XYZ
    dof rx rz
    limits (-45.0 45.0)
           (-45.0 45.0)
  end
  begin
     id 24 
     name rclavicle
     direction -0.90847 0.38596 0.160368   
     length 3.12973  
     axis 0 0 0   XYZ 
    dof ry rz
    limits (-10.0 20.0)
           (-20.0 0.0)
  end
  begin
     id 25 
     name rhumerus
     direction -1 -4.48974e-011 4.47268e-028  
     length 4.72284   
     axis 180 30 90   XYZ
    dof rx ry rz
    limits (-90.0 60.0)
           (-90.0 90.0)
           (-90.0 90.0)
  end
  begin
     id 26 
     name rradius
     direction -1 -4.48969e-011 3.43203e-027   
     length 3.23459   
     axis 180 30 90   XYZ
    dof rx
    limits (-10.0 170.0)
  end
  begin
     id 27 
     name rwrist
     direction -1 -4.48969e-011 9.12911e-027   
     length 1.6173   
     axis -6.84618e-015 -90 -90   XYZ
    dof ry
    limits (-180.0 0.0)
  end
  begin
     id 28
     name rhand
     direction -1 -4.49194e-011 1.83006e-026   
     length 0.307416   
     axis -1.16502e-014 -90 -90   XYZ
    dof rx rz
    limits (-90.0 90.0)
           (-45.0 45.0)
  end
  begin
     id 29
     name rfingers
     direction -1 -4.48423e-011 3.63103e-026   
     length 0.247847   
     axis -2.33008e-014 -90 -90   XYZ
    dof rx
    limits (0.0 90.0)
  end
  begin
     id 30
     name rthumb
     direction -0.707107 -6.34802e-011 0.707107   
     length 0.35586   
     axis -90 -45 -5.69224e-014   XYZ
    dof rx rz
    limits (-45.0 45.0)
           (-45.0 45.0)
  end
:hierarchy
  begin
    root lhipjoint rhipjoint lowerback
    lhipjoint lfemur
    lfemur ltibia
    ltibia lfoot
    lfoot ltoes
    rhipjoint rfemur
    rfemur rtibia
    rtibia rfoot
    rfoot rtoes
    lowerback upperback
    upperback thorax
    thorax lowerneck lclavicle rclavicle
    lowerneck upperneck
    upperneck head
    lclavicle lhumerus
    lhumerus lradius
    lradius lwrist
    lwrist lhand lthumb
    lhand lfingers
    rclavicle rhumerus
    rhumerus rradius
    rradius rwrist
    rwrist rhand rthumb
    rhand rfingers
  end

#!OML:ASF H:\Terrain\Patient Classification 1\Animal1\Tuesday\Animal1.ASF
:FULLY-SPECIFIED
:DEGREES
144
root 16.3399 15.7529 -24.2218 11.0647 -18.5878 0.881258
lowerback 12.0499 -0.248907 2.10079
upperback 5.32184 -0.131967 0.480988
thorax -1.19379 -0.0594756 -0.666624
lowerneck -9.03222 5.25074 -1.20495
upperneck -16.0579 7.1346 0.256831
head -3.75951 3.57558 0.250827
rclavicle -7.95139e-015 2.42517e-014
rhumerus -56.1931 30.841 -95.9297
rradius 47.9
rwrist -30.0438
rhand -15.911 12.7644
rfingers 7.12502
rthumb 10.286 -16.9641
lclavicle -7.95139e-015 2.42517e-014
lhumerus -56.4338 -24.7697 93.2268
lradius 51.886
lwrist -7.47997
lhand 19.1407 48.161
lfingers 7.12502
lthumb 43.7337 72.1425
rfemur -37.2207 1.67497 22.7521
rtibia 41.6626
rfoot -20.5648 -30.5322
rtoes 22.9195
lfemur -34.3099 -3.28912 -24.699
ltibia 37.8937
lfoot -17.0463 22.68
ltoes 12.3408
145
root 16.3133 15.7502 -24.2198 11.0247 -18.5054 1.05818
lowerback 11.9909 -0.334666 1.75282
upperback 5.45615 -0.288644 0.379709
thorax -1.0259 -0.139442 -0.556367
lowerneck -9.43134 5.45164 -0.817305
upperneck -16.0848 7.36973 0.145804
head -3.68035 3.67448 0.160849
rclavicle -7.5737e-014 4.73108e-014
rhumerus -56.0448 31.4491 -96.3303
rradius 47.8538
rwrist -30.1523
rhand -16.36 13.1898
rfingers 7.12502
rthumb 9.85286 -16.5596
lclavicle -7.5737e-014 4.73108e-014
lhumerus -56.2653 -24.4477 92.7429
lradius 52.0103
lwrist -7.57473
lhand 19.7258 48.0239
lfingers 7.12502
lthumb 44.2795 71.8017
rfemur -37.2677 1.8327 22.5838
rtibia 41.7123
rfoot -19.9164 -30.0434
rtoes 23.9922
lfemur -34.3314 -3.30156 -24.7814
ltibia 37.9598
lfoot -17.1894 22.5353
ltoes 12.9923
146
root 16.2859 15.7486 -24.215 10.9409 -18.3572 1.11537
lowerback 11.9879 -0.39774 1.6395
upperback 5.58966 -0.38782 0.308938
thorax -0.887261 -0.188402 -0.553929
lowerneck -9.62516 5.59024 -0.639809
upperneck -16.2514 7.54977 0.168789
head -3.70243 3.75278 0.141074
rclavicle -3.06128e-014 1.63003e-014
rhumerus -55.9733 31.8427 -96.6161
rradius 47.8623
rwrist -30.2534
rhand -17.1861 14.214
rfingers 7.12502
rthumb 9.05575 -15.5716
lclavicle -3.06128e-014 1.63003e-014
lhumerus -56.1207 -24.3033 92.4486
lradius 52.0093
lwrist -7.56668
lhand 20.0505 48.2286
lfingers 7.12502
lthumb 44.5821 71.8909
rfemur -37.1846 1.77532 22.6273
rtibia 41.8525
rfoot -19.2347 -29.5596
rtoes 26.2762
lfemur -34.2505 -3.18179 -24.7846
ltibia 38.0218
lfoot -17.2154 22.3449
ltoes 12.6332
147
root 16.2611 15.7407 -24.2105 10.8239 -18.0998 1.15996
lowerback 12.0694 -0.448126 1.71645
upperback 5.62884 -0.445342 0.271267
thorax -0.892209 -0.215077 -0.62874
lowerneck -9.43184 5.58034 -0.762426
upperneck -16.4994 7.56691 0.321116
head -3.83982 3.76197 0.199666
rclavicle -2.38542e-014 -2.38542e-015
rhumerus -56.163 31.9818 -96.7553
rradius 47.9641
rwrist -30.5481
rhand -17.8582 15.4671
rfingers 7.12502
rthumb 8.40722 -14.3456
lclavicle -2.38542e-014 -2.38542e-015
lhumerus -56.1508 -24.2522 92.4179
lradius 51.8737
lwrist -7.72147
lhand 20.0845 48.2498
lfingers 7.12502
lthumb 44.6137 71.8999
rfemur -37.059 1.66573 22.7019
rtibia 42.0404
rfoot -18.6399 -29.2256
rtoes 28.2601
lfemur -34.1363 -3.07278 -24.806
ltibia 38.075
lfoot -17.031 22.2465
ltoes 11.1977
148
root 16.2361 15.7325 -24.2067 10.6826 -17.8427 1.25533
lowerback 12.1814 -0.503873 1.74363
upperback 5.62095 -0.513241 0.243282
thorax -0.962924 -0.248399 -0.663677
lowerneck -9.22981 5.52911 -0.874659
upperneck -16.5633 7.51673 0.404475
head -3.90728 3.7403 0.238122
rclavicle 8.24956e-014 -4.77083e-015
rhumerus -56.4604 32.1553 -96.9628
rradius 47.9471
rwrist -30.8401
rhand -18.6672 15.8604
rfingers 7.12502
rthumb 7.62636 -13.9821
lclavicle 8.24956e-014 -4.77083e-015
lhumerus -56.2479 -24.1569 92.4474
lradius 51.7367
lwrist -7.91734
lhand 20.2986 48.003
lfingers 7.12502
lthumb 44.8131 71.5758
rfemur -36.9275 1.68108 22.6869
rtibia 42.2157
rfoot -18.1043 -29.3835
rtoes 27.7839
lfemur -34.0174 -3.01808 -24.8613
ltibia 38.1246
lfoot -17.058 22.0211
ltoes 10.9446
149
root 16.2079 15.7287 -24.2048 10.537 -17.6395 1.41868
lowerback 12.249 -0.537396 1.60409
upperback 5.65412 -0.571476 0.233115
thorax -0.965352 -0.279271 -0.587883
lowerneck -9.2322 5.49512 -0.934472
upperneck -16.5373 7.47903 0.44369
head -3.90143 3.72418 0.261711
rclavicle -2.04748e-014 1.47101e-014
rhumerus -56.6602 32.4268 -97.1147
rradius 47.9918
rwrist -30.7407
rhand -18.7923 15.1104
rfingers 7.12502
rthumb 7.50563 -14.7364
lclavicle -2.04748e-014 1.47101e-014
lhumerus -56.234 -24.0609 92.4863
lradius 51.5967
lwrist -7.90918
lhand 20.7331 47.7561
lfingers 7.12502
lthumb 45.2174 71.1695
rfemur -36.8184 1.82208 22.5655
rtibia 42.3535
rfoot -17.4778 -30.3742
rtoes 25.81
lfemur -33.9366 -2.93985 -24.9569
ltibia 38.1739
lfoot -17.2181 21.6465
ltoes 11.8125
150
root 16.1783 15.7248 -24.2059 10.4032 -17.442 1.66794
lowerback 12.2612 -0.548492 1.40259
upperback 5.73503 -0.609822 0.177709
thorax -0.88733 -0.300161 -0.52736
lowerneck -9.39679 5.45201 -1.01342
upperneck -16.5183 7.43946 0.563283
head -3.87438 3.70616 0.319746
rclavicle 7.15625e-015 1.55052e-014
rhumerus -56.6049 32.5716 -97.1085
rradius 48.1711
rwrist -30.4828
rhand -17.4875 14.1045
rfingers 7.12502
rthumb 8.76494 -15.6935
lclavicle 7.15625e-015 1.55052e-014
lhumerus -56.0668 -24.0917 92.4797
lradius 51.3835
lwrist -7.73741
lhand 20.9445 47.6086
lfingers 7.12502
lthumb 45.4139 70.9432
rfemur -36.743 2.02131 22.3371
rtibia 42.4452
rfoot -17.4122 -31.4373
rtoes 25.1262
lfemur -33.9058 -2.97806 -25.1068
ltibia 38.2273
lfoot -17.0963 21.4888
ltoes 11.491
151
root 16.1484 15.7171 -24.2045 10.3269 -17.2626 1.81246
lowerback 12.2944 -0.533998 1.34347
upperback 5.76717 -0.597894 0.118846
thorax -0.871616 -0.294158 -0.556558
lowerneck -9.59051 5.34607 -1.18197
upperneck -16.3895 7.32857 0.763438
head -3.80887 3.65638 0.422219
rclavicle 1.37161e-014 -9.14409e-015
rhumerus -56.4721 32.5728 -97.1365
rradius 48.1078
rwrist -30.3449
rhand -16.9924 14.442
rfingers 7.12502
rthumb 9.24271 -15.3354
lclavicle 1.37161e-014 -9.14409e-015
lhumerus -56.0038 -24.2456 92.4782
lradius 51.1294
lwrist -7.5984
lhand 20.9402 47.4492
lfingers 7.12502
lthumb 45.4099 70.7854
rfemur -36.6545 2.28903 22.2039
rtibia 42.5058
rfoot -17.5257 -32.0749
rtoes 25.3991
lfemur -33.8794 -2.96874 -25.1732
ltibia 38.2841
lfoot -16.8905 21.4635
ltoes 9.70875
152
root 16.1193 15.7109 -24.2022 10.282 -17.0449 1.84159
lowerback 12.3679 -0.57362 1.35663
upperback 5.75296 -0.645804 0.16027
thorax -0.926644 -0.318437 -0.514128
lowerneck -9.52665 5.26616 -1.37571
upperneck -16.4365 7.23598 0.785184
head -3.84521 3.62057 0.459527
rclavicle -3.27995e-014 -6.36111e-015
rhumerus -56.5475 32.8919 -97.2491
rradius 47.9126
rwrist -30.387
rhand -17.6186 15.3426
rfingers 7.12502
rthumb 8.63844 -14.4606
lclavicle -3.27995e-014 -6.36111e-015
lhumerus -56.0803 -24.1046 92.4915
lradius 50.8858
lwrist -7.61737
lhand 21.6016 47.1806
lfingers 7.12502
lthumb 46.024 70.2651
rfemur -36.5615 2.4563 22.2221
rtibia 42.5676
rfoot -17.1747 -32.2738
rtoes 25.5017
lfemur -33.8671 -2.88811 -25.1373
ltibia 38.3552
lfoot -16.9106 21.3151
ltoes 8.82273
153
root 16.09 15.7107 -24.2012 10.1692 -16.8074 1.93325
lowerback 12.3941 -0.651071 1.2922
upperback 5.83222 -0.754272 0.204188
thorax -0.858766 -0.373442 -0.418554
lowerneck -9.43497 5.26934 -1.46254
upperneck -16.693 7.23478 0.664771
head -3.95345 3.62733 0.427424
rclavicle 1.13307e-014 1.27222e-014
rhumerus -56.653 33.4173 -97.3357
rradius 47.8908
rwrist -30.5717
rhand -17.7679 14.5601
rfingers 7.12502
rthumb 8.49432 -15.2491
lclavicle 1.13307e-014 1.27222e-014
lhumerus -55.9734 -23.7831 92.4381
lradius 50.5786
lwrist -7.69464
lhand 22.6535 47.0516
lfingers 7.12502
lthumb 46.9986 69.7184
rfemur -36.4226 2.52459 22.2089
rtibia 42.6185
rfoot -17.2734 -32.057
rtoes 26.112
lfemur -33.84 -2.78583 -25.1719
ltibia 38.4857
lfoot -16.8996 21.1208
ltoes 8.63055
154
root 16.0588 15.7077 -24.1978 10.0857 -16.6126 1.9184
lowerback 12.323 -0.663636 1.35562
upperback 5.97948 -0.767694 0.185702
thorax -0.667697 -0.377435 -0.473458
lowerneck -9.55951 5.28291 -1.36514
upperneck -16.791 7.24586 0.629063
head -3.96173 3.62869 0.401379
rclavicle 1.03368e-014 -4.69132e-014
rhumerus -56.7135 33.7091 -97.4895
rradius 48.0062
rwrist -30.5823
rhand -17.448 13.6413
rfingers 7.12502
rthumb 8.80307 -16.1551
lclavicle 1.03368e-014 -4.69132e-014
lhumerus -55.6496 -23.8295 92.3724
lradius 50.0008
lwrist -7.70787
lhand 22.5357 46.9043
lfingers 7.12502
lthumb 46.8895 69.6191
rfemur -36.2739 2.75133 22.282
rtibia 42.6491
rfoot -17.6193 -32.0281
rtoes 26.6701
lfemur -33.8281 -2.54538 -25.12
ltibia 38.689
lfoot -16.8655 20.9452
ltoes 7.66899
